<svg xmlns="http://www.w3.org/2000/svg" width="74" height="24" viewBox="0 0 74 24" fill="none">
  <path d="M31.5442 12.4784C31.5442 15.9205 28.7539 18.5331 25.2311 18.5331C21.7083 18.5331 18.918 15.9205 18.918 12.4784C18.918 9.01864 21.7083 6.42358 25.2311 6.42358C28.7539 6.42358 31.5442 9.01864 31.5442 12.4784ZM28.6606 12.4784C28.6606 10.5947 27.1217 9.17136 25.2311 9.17136C23.3405 9.17136 21.8016 10.5947 21.8016 12.4784C21.8016 14.3473 23.3405 15.7854 25.2311 15.7854C27.1217 15.7854 28.6606 14.3473 28.6606 12.4784Z" fill="#EA4335"/>
  <path d="M45.147 6.89635V17.8341C45.147 22.6187 42.2321 24.6219 38.8644 24.6219C35.6966 24.6219 33.8213 22.2311 33.0689 20.44L35.6194 19.4231C36.0676 20.6023 37.2002 22.0404 38.8644 22.0404C40.9393 22.0404 42.3541 20.478 42.3541 17.7965V16.9854H42.262C41.6274 17.7965 40.3167 18.5331 38.7094 18.5331C35.4181 18.5331 32.3582 15.7666 32.3582 12.5009C32.3582 9.1976 35.4181 6.42358 38.7094 6.42358C40.3089 6.42358 41.6274 7.16018 42.262 7.95892H42.3541V6.89635H45.147ZM42.5246 12.5009C42.5246 10.6507 41.0936 9.17136 39.2645 9.17136C37.4122 9.17136 35.8502 10.6507 35.8502 12.5009C35.8502 14.3361 37.4122 15.7854 39.2645 15.7854C41.0936 15.7854 42.5246 14.3361 42.5246 12.5009Z" fill="#EA4335"/>
  <path d="M47.4908 0.787994H50.3743V18.1267H47.4908V0.787994Z" fill="#34A853"/>
  <path d="M58.9735 18.533C55.8675 18.533 53.3532 16.1047 53.3532 12.5009C53.3532 8.86201 55.8675 6.42358 58.9735 6.42358C60.6147 6.42358 61.808 7.1038 62.6372 8.12514H62.7291L62.3724 6.89635H65.0625C65.1698 7.38035 65.2228 7.95892 65.2228 8.44292V18.1267H62.3392V16.984H62.2471C61.4255 17.9829 60.232 18.533 58.9735 18.533ZM59.5312 15.7854C61.3293 15.7854 62.8148 14.3361 62.8148 12.5009C62.8148 10.6507 61.3293 9.17136 59.5312 9.17136C57.7177 9.17136 56.2477 10.6507 56.2477 12.5009C56.2477 14.3361 57.7177 15.7854 59.5312 15.7854Z" fill="#4285F4"/>
  <path d="M73.1429 18.1267L69.7676 12.5009L73.0507 6.89635H69.8599L67.5233 10.6507H67.4392L65.0709 6.89635H61.8728L65.1553 12.5009L61.78 18.1267H64.9708L67.4392 14.1435H67.5233L69.9838 18.1267H73.1429Z" fill="#FBBC05"/>
  <path d="M9.75946 10.7624V13.7071H15.2291C15.0431 15.0138 14.5562 15.9922 13.8052 16.6725C12.9053 17.465 11.5605 18.325 9.75946 18.325C6.71635 18.325 4.25432 15.9073 4.25432 13.0006C4.25432 10.0938 6.71635 7.67613 9.75946 7.67613C11.2903 7.67613 12.4432 8.24308 13.3028 9.0052L15.5461 6.87739C14.1923 5.63001 12.2594 4.74006 9.75946 4.74006C5.04322 4.74006 1.12402 8.34722 1.12402 13.0006C1.12402 17.6539 5.04322 21.2611 9.75946 21.2611C12.2313 21.2611 14.1923 20.4851 15.731 18.9541C17.3059 17.4399 17.8792 15.2672 17.8792 13.5115C17.8792 12.9783 17.8314 12.4704 17.7434 12.0469H9.75946C9.75946 10.7624 9.75946 10.7624 9.75946 10.7624Z" fill="#4285F4"/>
</svg> 